<?xml version="1.0" standalone="no"?>
<!DOCTYPE svg PUBLIC "-//W3C//DTD SVG 20010904//EN"
 "http://www.w3.org/TR/2001/REC-SVG-20010904/DTD/svg10.dtd">
<svg version="1.0" xmlns="http://www.w3.org/2000/svg"
 width="204.000000pt" height="70.000000pt" viewBox="0 0 204.000000 70.000000"
 preserveAspectRatio="xMidYMid meet">

<g transform="translate(0.000000,70.000000) scale(0.100000,-0.100000)"
fill="#000000" stroke="none">
<path d="M95 345 l0 -255 45 0 45 0 -3 140 c-3 124 -2 140 13 140 26 0 55 -19
65 -43 6 -16 9 0 9 53 0 53 -3 69 -9 53 -10 -23 -39 -43 -64 -43 -13 0 -16 15
-16 95 l0 95 33 0 c41 0 75 -23 93 -64 l13 -31 1 55 c1 40 4 50 10 35 12 -28
12 -428 0 -459 l-10 -26 120 0 120 0 1 38 2 37 6 -35 6 -35 66 -3 c81 -4 119
12 143 62 36 75 19 122 -81 227 -75 79 -83 92 -83 127 0 45 23 72 61 72 39 0
58 -21 78 -84 l18 -59 5 46 c7 56 31 97 59 97 20 0 20 -5 17 -245 l-3 -245 52
0 c52 0 52 0 43 26 -6 14 -10 124 -10 245 0 206 1 219 18 219 24 0 51 -29 62
-66 7 -24 8 -20 9 29 l1 57 -196 0 c-119 0 -203 -4 -215 -11 -11 -5 -29 -25
-39 -42 l-20 -32 0 43 0 42 -232 0 -233 0 0 -255z m404 220 c30 -15 43 -40 62
-119 10 -41 26 -64 91 -132 88 -91 105 -132 74 -179 -36 -55 -111 -20 -144 68
l-20 52 -12 -47 c-14 -56 -42 -84 -92 -93 l-38 -7 0 131 c0 120 2 131 18 131
22 0 46 -18 60 -45 9 -16 11 -3 11 60 0 62 -2 74 -10 56 -11 -29 -37 -50 -61
-51 -16 0 -18 11 -18 95 l0 95 25 0 c15 0 39 -7 54 -15z m68 -387 c-3 -8 -6
-5 -6 6 -1 11 2 17 5 13 3 -3 4 -12 1 -19z"/>
<path d="M1125 344 l0 -256 87 4 c58 4 96 11 113 22 34 23 65 74 66 111 1 24
3 21 10 -15 17 -89 52 -120 133 -120 55 0 101 35 116 88 5 20 10 119 10 220 0
122 4 182 11 182 7 0 9 -76 7 -245 -3 -213 -1 -245 12 -245 13 0 15 25 13 177
-2 119 1 171 7 158 5 -11 25 -89 45 -174 19 -85 37 -157 40 -160 12 -12 24 23
60 174 20 88 41 164 46 170 12 12 12 -271 0 -313 l-10 -32 52 0 52 0 0 255 0
255 -47 0 c-46 0 -48 -1 -48 -27 0 -41 -63 -284 -71 -275 -11 10 -59 234 -59
271 l0 31 -97 0 -98 0 0 -228 c0 -240 -4 -262 -45 -262 -41 0 -45 22 -45 262
l0 228 -45 0 -45 0 2 -157 c1 -96 -1 -145 -6 -126 -13 53 -38 81 -75 89 l-35
6 42 32 c43 33 54 58 42 103 -9 36 -60 53 -157 53 l-83 0 0 -256z m159 220
c35 -34 3 -125 -56 -163 -17 -10 -18 -4 -18 84 l0 95 29 0 c16 0 37 -7 45 -16z
m10 -196 c21 -35 29 -112 16 -173 -12 -60 -23 -72 -68 -81 l-32 -6 0 119 c0
91 4 124 16 141 20 28 50 28 68 0z"/>
</g>
</svg>
