<?xml version="1.0" standalone="no"?>
<!DOCTYPE svg PUBLIC "-//W3C//DTD SVG 20010904//EN"
 "http://www.w3.org/TR/2001/REC-SVG-20010904/DTD/svg10.dtd">
<svg version="1.0" xmlns="http://www.w3.org/2000/svg"
 width="512.000000pt" height="512.000000pt" viewBox="0 0 512.000000 512.000000"
 preserveAspectRatio="xMidYMid meet">

<g transform="translate(0.000000,512.000000) scale(0.100000,-0.100000)"
fill="#000000" stroke="none">
<path d="M3240 5033 c-323 -31 -573 -120 -835 -296 -130 -88 -342 -303 -431
-437 -157 -236 -247 -483 -278 -759 l-12 -105 -105 -12 c-139 -15 -202 -29
-334 -71 -439 -141 -788 -443 -991 -858 -231 -474 -228 -1002 11 -1480 86
-172 175 -295 315 -435 140 -140 263 -229 435 -315 398 -198 816 -235 1235
-108 639 193 1099 750 1174 1419 l12 108 112 13 c270 30 517 122 757 280 130
87 346 301 432 428 186 277 274 537 299 882 l6 91 -48 52 c-97 104 -1560 1566
-1588 1588 -30 22 -64 25 -166 15z m50 -185 c0 -18 3 -57 6 -85 l7 -53 -44 0
c-72 0 -218 -29 -326 -65 -198 -66 -359 -164 -513 -311 -353 -339 -496 -842
-374 -1313 188 -723 921 -1158 1645 -976 233 59 434 171 610 342 160 155 273
335 343 543 37 112 66 254 66 327 l0 44 83 -7 c45 -3 84 -8 86 -10 3 -2 -3
-57 -12 -122 -28 -198 -90 -385 -181 -545 -220 -386 -581 -651 -1024 -750 -82
-18 -128 -21 -302 -21 -174 0 -220 3 -307 22 -633 138 -1105 640 -1199 1274
-22 147 -15 390 15 530 135 631 660 1116 1296 1197 125 15 125 15 125 -21z
m813 -741 c356 -353 647 -645 647 -648 0 -11 -150 21 -250 53 -239 76 -424
190 -611 377 -187 187 -301 372 -377 611 -24 75 -65 250 -58 250 0 0 292 -289
649 -643z m-739 348 c87 -264 207 -464 395 -659 196 -202 421 -342 696 -432
l100 -33 -2 -77 c-2 -43 -5 -79 -7 -82 -3 -2 -28 14 -58 36 -133 99 -273 145
-448 145 -176 0 -330 -51 -455 -150 l-50 -40 -40 30 c-165 120 -404 182 -612
158 -216 -26 -371 -102 -541 -265 -89 -86 -115 -107 -122 -95 -23 36 -53 202
-58 317 -12 294 69 553 246 785 112 148 299 293 472 368 133 58 310 99 408 96
l44 -2 32 -100z m-1674 -1207 c0 -18 3 -57 6 -85 l7 -53 -45 0 c-179 0 -475
-102 -662 -229 -240 -162 -435 -422 -525 -700 -48 -146 -65 -259 -64 -426 1
-366 137 -690 397 -951 261 -260 585 -396 951 -397 284 -1 530 72 766 229 97
64 293 259 356 354 133 200 233 485 233 668 l0 45 53 -7 c28 -3 67 -6 85 -6
l34 0 -7 -67 c-39 -391 -219 -748 -505 -1000 -463 -408 -1109 -498 -1665 -233
-352 168 -644 494 -780 870 -77 215 -105 489 -71 717 90 613 538 1108 1136
1257 97 24 205 42 273 45 24 1 27 -2 27 -31z m1438 -64 c110 -22 226 -80 345
-172 125 -96 217 -151 328 -196 149 -60 310 -92 502 -99 l67 -2 -36 -53 c-127
-189 -362 -361 -600 -441 -527 -177 -1115 43 -1403 524 l-41 69 102 104 c57
57 131 124 166 149 159 114 371 158 570 117z m1047 1 c94 -24 200 -81 267
-143 l60 -57 -20 -50 -20 -50 -178 1 c-159 1 -190 4 -279 28 -98 25 -326 129
-332 151 -7 24 161 107 252 125 67 13 188 11 250 -5z m-2411 -330 c88 -271
228 -497 428 -691 194 -190 399 -314 663 -400 l100 -33 -2 -77 c-2 -43 -5 -79
-7 -82 -3 -2 -28 14 -58 36 -72 54 -161 97 -255 124 -109 31 -277 31 -386 0
-95 -27 -196 -77 -263 -130 l-50 -40 -40 30 c-158 119 -403 183 -609 159 -219
-26 -378 -104 -548 -270 -85 -83 -110 -102 -117 -91 -23 38 -53 203 -58 322
-13 341 103 641 342 887 103 105 254 212 370 260 142 59 319 101 414 98 l44
-2 32 -100z m-216 -1275 c105 -25 212 -78 299 -148 261 -210 537 -312 845
-312 43 0 78 -3 78 -7 0 -13 -87 -121 -154 -191 -342 -355 -870 -460 -1326
-263 -229 99 -420 263 -551 476 l-49 79 112 114 c122 122 197 177 299 218 139
57 300 69 447 34z m1027 5 c94 -24 200 -81 266 -143 l61 -57 -19 -50 -19 -50
-138 -3 c-157 -3 -272 13 -397 55 -86 29 -250 111 -256 128 -7 23 161 107 252
125 67 13 188 11 250 -5z"/>
<path d="M3047 4150 c-92 -24 -179 -98 -220 -188 -29 -65 -29 -179 0 -244 30
-66 95 -133 162 -165 80 -39 182 -39 262 0 67 32 132 99 162 165 32 72 30 180
-6 253 -32 66 -100 132 -162 160 -52 23 -146 32 -198 19z m136 -164 c103 -43
128 -177 48 -257 -112 -113 -296 -12 -267 146 18 94 128 150 219 111z"/>
<path d="M1447 2550 c-92 -24 -179 -98 -220 -188 -29 -65 -29 -179 0 -244 30
-66 95 -133 162 -165 80 -39 182 -39 262 0 67 32 132 99 162 165 32 72 30 180
-6 253 -32 66 -100 132 -162 160 -52 23 -146 32 -198 19z m136 -164 c103 -43
128 -177 48 -257 -65 -65 -157 -65 -222 0 -124 123 13 325 174 257z"/>
</g>
</svg>
