<?xml version="1.0" standalone="no"?>
<!DOCTYPE svg PUBLIC "-//W3C//DTD SVG 20010904//EN"
 "http://www.w3.org/TR/2001/REC-SVG-20010904/DTD/svg10.dtd">
<svg version="1.0" xmlns="http://www.w3.org/2000/svg"
 width="512.000000pt" height="512.000000pt" viewBox="0 0 512.000000 512.000000"
 preserveAspectRatio="xMidYMid meet">

<g transform="translate(0.000000,512.000000) scale(0.100000,-0.100000)"
fill="#000000" stroke="none">
<path d="M1115 5026 c-39 -17 -81 -67 -93 -109 -5 -18 -129 -408 -276 -869
l-266 -836 2 -1449 3 -1448 27 -51 c40 -76 70 -107 140 -145 l63 -34 1845 0
1845 0 63 34 c70 38 100 69 140 145 l27 51 3 1448 2 1449 -275 866 c-152 477
-284 878 -293 891 -10 14 -31 34 -46 45 -27 21 -30 21 -1454 23 -1171 2 -1432
0 -1457 -11z m2771 -163 c-4 -10 -118 -369 -255 -798 l-248 -780 -1358 -3
c-1117 -2 -1356 0 -1352 11 3 7 116 362 251 788 135 426 248 780 251 787 3 9
285 12 1360 12 1287 0 1356 -1 1351 -17z m287 -710 c92 -289 166 -527 165
-528 -3 -2 -446 571 -472 608 -8 13 122 447 134 447 3 0 81 -237 173 -527z
m-73 -485 c159 -208 290 -380 290 -383 0 -3 -189 -5 -421 -5 -362 0 -420 2
-416 14 3 8 59 182 124 385 64 204 121 370 125 369 4 -2 138 -173 298 -380z
m-740 -1988 l0 -1440 -1309 2 c-1305 3 -1310 3 -1337 24 -15 11 -37 33 -48 48
-21 27 -21 31 -24 1417 l-2 1389 1360 0 1360 0 0 -1440z m1120 480 l0 -960
-320 0 -320 0 0 -80 0 -80 320 0 320 0 0 -80 0 -80 -160 0 -160 0 0 -80 0 -80
160 0 160 0 0 -80 0 -80 -320 0 -320 0 0 -80 0 -80 321 0 322 0 -7 -32 c-7
-39 -31 -74 -70 -102 -27 -20 -41 -21 -457 -24 l-429 -3 0 1441 0 1440 480 0
480 0 0 -960z"/>
<path d="M1746 4709 c-62 -15 -153 -68 -197 -116 -22 -24 -55 -74 -72 -111
-29 -61 -32 -76 -32 -163 0 -90 2 -99 37 -171 45 -91 103 -147 196 -191 l67
-32 496 0 495 0 76 37 c91 45 147 103 191 196 29 61 32 76 32 162 0 86 -3 101
-32 162 -44 93 -100 151 -191 196 l-76 37 -475 2 c-268 1 -493 -3 -515 -8z
m968 -161 c86 -26 166 -136 166 -228 0 -92 -80 -202 -166 -228 -58 -17 -890
-17 -948 0 -55 16 -138 99 -154 154 -28 94 -8 169 63 239 27 28 66 56 85 62
52 16 899 17 954 1z"/>
<path d="M2077 1830 c-141 -36 -263 -159 -302 -305 -34 -124 -6 -290 70 -421
40 -70 443 -474 508 -510 70 -39 178 -41 247 -5 59 30 436 405 496 491 161
236 128 535 -75 681 -150 108 -357 103 -502 -12 l-39 -31 -39 31 c-72 57 -144
83 -240 87 -47 2 -103 -1 -124 -6z m213 -175 c19 -9 70 -51 113 -93 l77 -77
78 77 c100 99 127 113 222 113 64 0 82 -4 122 -27 62 -37 105 -91 125 -157 30
-104 -2 -246 -77 -339 -73 -90 -414 -420 -443 -427 -56 -14 -78 2 -299 223
-237 237 -259 268 -281 398 -25 146 43 273 170 320 48 18 147 12 193 -11z"/>
<path d="M3840 800 l0 -80 80 0 80 0 0 80 0 80 -80 0 -80 0 0 -80z"/>
</g>
</svg>
