<?xml version="1.0" standalone="no"?>
<!DOCTYPE svg PUBLIC "-//W3C//DTD SVG 20010904//EN"
 "http://www.w3.org/TR/2001/REC-SVG-20010904/DTD/svg10.dtd">
<svg version="1.0" xmlns="http://www.w3.org/2000/svg"
 width="100.000000pt" height="100.000000pt" viewBox="0 0 100.000000 100.000000"
 preserveAspectRatio="xMidYMid meet">
<metadata>
Created by potrace 1.16, written by Peter Selinger 2001-2019
</metadata>
<g transform="translate(0.000000,100.000000) scale(0.100000,-0.100000)"
fill="#000000" stroke="none">
<path d="M446 919 c-82 -13 -146 -78 -146 -148 0 -34 -4 -39 -45 -59 -72 -35
-73 -78 -2 -96 31 -8 37 -14 37 -35 0 -29 -42 -125 -59 -135 -15 -10 -14 -63
1 -72 7 -5 40 -16 73 -25 l60 -16 -80 -37 c-117 -54 -165 -107 -165 -181 l0
-35 380 0 380 0 0 35 c0 73 -45 123 -165 183 l-79 39 34 8 c58 12 108 36 115
53 3 9 -7 40 -24 71 -38 72 -49 116 -56 226 -7 114 -18 147 -60 184 -31 27
-49 33 -130 45 -11 2 -42 0 -69 -5z m199 -305 c4 -25 2 -41 -8 -53 -8 -9 -29
-44 -47 -78 -26 -51 -31 -70 -29 -112 4 -57 0 -61 -61 -61 -61 0 -65 4 -62 63
3 46 -1 61 -27 102 -17 27 -31 54 -31 61 0 6 -7 17 -15 24 -34 28 -17 38 78
42 65 3 105 10 137 25 59 28 57 28 65 -13z m-145 -354 c34 0 73 6 88 14 25 13
33 11 112 -28 59 -29 91 -51 107 -75 13 -19 23 -38 23 -42 0 -5 -148 -9 -330
-9 -181 0 -330 3 -330 8 0 4 9 22 20 39 14 23 45 45 107 77 82 41 90 43 115
30 15 -8 54 -14 88 -14z"/>
</g>
</svg>
