<?xml version="1.0" standalone="no"?>
<!DOCTYPE svg PUBLIC "-//W3C//DTD SVG 20010904//EN"
 "http://www.w3.org/TR/2001/REC-SVG-20010904/DTD/svg10.dtd">
<svg version="1.0" xmlns="http://www.w3.org/2000/svg"
 width="512.000000pt" height="512.000000pt" viewBox="0 0 512.000000 512.000000"
 preserveAspectRatio="xMidYMid meet">

<g transform="translate(0.000000,512.000000) scale(0.100000,-0.100000)"
fill="#000000" stroke="none">
<path d="M3612 5105 c-423 -75 -767 -387 -877 -797 -14 -51 -28 -126 -32 -166
-5 -63 -9 -73 -27 -77 -12 -2 -95 -13 -185 -24 -178 -22 -226 -38 -277 -93
-46 -49 -1969 -2450 -1982 -2475 -15 -28 -15 -62 1 -89 13 -23 1683 -1366
1712 -1378 31 -11 62 -6 89 15 25 20 1943 2404 1993 2478 40 59 46 103 34 241
-6 69 -14 143 -17 166 l-6 40 75 22 c267 78 511 278 651 533 92 168 129 330
124 544 -3 136 -4 145 -27 169 -45 48 -132 40 -161 -13 -5 -11 -10 -81 -10
-156 0 -205 -36 -342 -132 -502 -73 -122 -221 -256 -358 -324 -62 -30 -171
-72 -176 -66 -1 1 -21 192 -43 425 -39 406 -41 425 -68 475 -35 64 -97 112
-165 127 -47 11 -97 6 -448 -38 -217 -27 -397 -48 -399 -46 -2 2 2 36 9 76 64
358 322 633 680 724 102 26 316 26 414 0 108 -29 200 -70 299 -136 50 -33 102
-60 115 -60 75 0 125 82 89 147 -25 46 -184 147 -310 197 -166 66 -409 92
-585 61z m113 -1136 c16 -17 25 -78 57 -412 20 -216 37 -403 38 -416 0 -24 0
-24 -82 -17 -134 12 -125 4 -120 102 6 106 -15 192 -67 272 -108 167 -307 246
-496 197 -224 -59 -373 -283 -336 -508 43 -260 288 -429 543 -376 68 14 176
70 217 113 l32 33 62 -14 c34 -7 108 -16 164 -20 l102 -6 6 -41 c21 -158 25
-250 11 -270 -32 -50 -1862 -2325 -1871 -2326 -12 -3 -58 86 -86 165 -26 74
-37 238 -20 315 6 29 23 75 36 102 34 67 33 112 -3 148 -24 23 -40 29 -98 35
-448 43 -858 155 -1194 326 -63 32 -123 64 -133 71 -16 12 68 120 929 1193
520 649 947 1182 949 1184 4 3 1279 168 1321 170 11 1 29 -8 39 -20z m-490
-470 c59 -17 121 -64 151 -115 32 -54 47 -174 22 -174 -8 0 -59 29 -113 65
-55 36 -110 65 -122 65 -76 0 -123 -75 -91 -145 10 -23 162 -135 199 -147 24
-8 -1 -26 -52 -38 -183 -44 -347 113 -309 296 30 143 174 232 315 193z m-2074
-2549 c117 -30 258 -58 398 -80 68 -11 125 -21 127 -23 2 -2 -1 -19 -6 -38
-16 -53 -23 -208 -12 -271 5 -32 7 -58 5 -58 -2 0 -144 113 -316 252 -172 138
-304 248 -294 245 10 -4 54 -16 98 -27z"/>
<path d="M2194 2927 c-23 -13 -727 -883 -738 -912 -25 -66 22 -135 93 -135 27
0 48 7 65 23 13 12 182 219 375 460 330 412 351 441 351 479 0 75 -81 122
-146 85z"/>
<path d="M2529 2637 c-23 -19 -419 -514 -462 -577 -25 -36 -21 -83 8 -118 32
-38 74 -48 113 -28 27 14 462 548 490 603 50 94 -69 189 -149 120z"/>
<path d="M2877 2358 c-14 -13 -183 -220 -376 -461 -330 -412 -351 -441 -351
-479 0 -75 81 -122 147 -85 29 17 732 893 739 923 23 92 -90 165 -159 102z"/>
<path d="M1848 1784 c-105 -56 -27 -222 87 -184 86 28 92 145 10 185 -41 19
-62 19 -97 -1z"/>
<path d="M4611 4577 c-14 -6 -34 -27 -44 -45 -56 -96 75 -192 154 -113 51 51
33 137 -33 160 -39 14 -47 14 -77 -2z"/>
</g>
</svg>
